<mxfile host="65bd71144e">
    <diagram id="oSJ0NXn2J_mG6VNqB7Fs" name="Page-1">
        <mxGraphModel dx="788" dy="536" grid="1" gridSize="10" guides="1" tooltips="1" connect="1" arrows="1" fold="1" page="1" pageScale="1" pageWidth="1100" pageHeight="1700" math="0" shadow="0">
            <root>
                <mxCell id="0"/>
                <mxCell id="1" style="locked=1;" parent="0"/>
                <mxCell id="8" value="" style="verticalLabelPosition=bottom;html=1;verticalAlign=top;align=center;strokeColor=none;fillColor=#00BEF2;shape=mxgraph.azure.git_repository;rotation=-90;" vertex="1" parent="1">
                    <mxGeometry x="80" y="130" width="30" height="30" as="geometry"/>
                </mxCell>
                <mxCell id="10" value="" style="endArrow=classic;html=1;exitX=0.5;exitY=1;exitDx=0;exitDy=0;exitPerimeter=0;" edge="1" parent="1" source="8">
                    <mxGeometry width="50" height="50" relative="1" as="geometry">
                        <mxPoint x="170" y="170" as="sourcePoint"/>
                        <mxPoint x="940" y="145" as="targetPoint"/>
                    </mxGeometry>
                </mxCell>
                <mxCell id="11" value="master" style="text;html=1;resizable=0;autosize=1;align=center;verticalAlign=middle;points=[];fillColor=none;strokeColor=none;rounded=0;fontSize=16;" vertex="1" parent="1">
                    <mxGeometry x="145" y="120" width="60" height="20" as="geometry"/>
                </mxCell>
                <mxCell id="23" value="" style="endArrow=classic;html=1;fontSize=16;elbow=vertical;entryX=0.5;entryY=0;entryDx=0;entryDy=0;entryPerimeter=0;" edge="1" parent="1" target="8">
                    <mxGeometry width="50" height="50" relative="1" as="geometry">
                        <mxPoint x="20" y="145" as="sourcePoint"/>
                        <mxPoint x="70" y="120" as="targetPoint"/>
                    </mxGeometry>
                </mxCell>
                <mxCell id="26" value="" style="sketch=0;pointerEvents=1;shadow=0;dashed=0;html=1;strokeColor=none;fillColor=#FF3333;labelPosition=center;verticalLabelPosition=bottom;verticalAlign=top;align=center;outlineConnect=0;shape=mxgraph.veeam2.locked;fontSize=16;" vertex="1" parent="1">
                    <mxGeometry x="124" y="119.5" width="21" height="21" as="geometry"/>
                </mxCell>
                <mxCell id="43" value="" style="endArrow=none;dashed=1;html=1;dashPattern=1 3;strokeWidth=2;fontSize=16;elbow=vertical;" edge="1" parent="1">
                    <mxGeometry width="50" height="50" relative="1" as="geometry">
                        <mxPoint x="20" y="70" as="sourcePoint"/>
                        <mxPoint x="930" y="80" as="targetPoint"/>
                    </mxGeometry>
                </mxCell>
                <mxCell id="44" value="Events" style="text;html=1;resizable=0;autosize=1;align=center;verticalAlign=middle;points=[];fillColor=none;strokeColor=none;rounded=0;fontSize=16;" vertex="1" parent="1">
                    <mxGeometry x="20" y="40" width="60" height="20" as="geometry"/>
                </mxCell>
                <mxCell id="63" value="release1 start" style="locked=1;" parent="0"/>
                <mxCell id="64" value="" style="verticalLabelPosition=bottom;html=1;verticalAlign=top;align=center;strokeColor=none;fillColor=#00BEF2;shape=mxgraph.azure.git_repository;rotation=-90;" vertex="1" parent="63">
                    <mxGeometry x="80" y="130" width="30" height="30" as="geometry"/>
                </mxCell>
                <mxCell id="65" value="" style="verticalLabelPosition=bottom;html=1;verticalAlign=top;align=center;strokeColor=none;fillColor=#00BEF2;shape=mxgraph.azure.git_repository;rotation=-90;" vertex="1" parent="63">
                    <mxGeometry x="190" y="215" width="30" height="30" as="geometry"/>
                </mxCell>
                <mxCell id="68" value="" style="endArrow=classic;html=1;fontSize=16;edgeStyle=orthogonalEdgeStyle;elbow=vertical;exitX=0.5;exitY=1;exitDx=0;exitDy=0;exitPerimeter=0;entryX=0.5;entryY=0;entryDx=0;entryDy=0;entryPerimeter=0;" edge="1" parent="63" source="64" target="65">
                    <mxGeometry width="50" height="50" relative="1" as="geometry">
                        <mxPoint x="110" y="150" as="sourcePoint"/>
                        <mxPoint x="160" y="200" as="targetPoint"/>
                    </mxGeometry>
                </mxCell>
                <mxCell id="69" value="" style="endArrow=classic;html=1;fontSize=16;elbow=vertical;exitX=0.5;exitY=1;exitDx=0;exitDy=0;exitPerimeter=0;" edge="1" parent="63" source="65">
                    <mxGeometry width="50" height="50" relative="1" as="geometry">
                        <mxPoint x="290" y="262" as="sourcePoint"/>
                        <mxPoint x="720" y="230" as="targetPoint"/>
                    </mxGeometry>
                </mxCell>
                <mxCell id="77" value="develop" style="text;html=1;resizable=0;autosize=1;align=center;verticalAlign=middle;points=[];fillColor=none;strokeColor=none;rounded=0;fontSize=16;" vertex="1" parent="63">
                    <mxGeometry x="280" y="202" width="70" height="20" as="geometry"/>
                </mxCell>
                <mxCell id="78" value="" style="sketch=0;pointerEvents=1;shadow=0;dashed=0;html=1;strokeColor=#B20000;fillColor=#FF3333;labelPosition=center;verticalLabelPosition=bottom;verticalAlign=top;align=center;outlineConnect=0;shape=mxgraph.veeam2.locked;fontSize=16;fontColor=#ffffff;" vertex="1" parent="63">
                    <mxGeometry x="259" y="202" width="21" height="21" as="geometry"/>
                </mxCell>
                <mxCell id="86" value="" style="endArrow=classic;html=1;fontSize=16;edgeStyle=orthogonalEdgeStyle;elbow=vertical;exitX=0.5;exitY=1;exitDx=0;exitDy=0;exitPerimeter=0;entryX=0.5;entryY=0;entryDx=0;entryDy=0;entryPerimeter=0;" edge="1" parent="63" source="64" target="87">
                    <mxGeometry width="50" height="50" relative="1" as="geometry">
                        <mxPoint x="120" y="155" as="sourcePoint"/>
                        <mxPoint x="230" y="220" as="targetPoint"/>
                    </mxGeometry>
                </mxCell>
                <mxCell id="87" value="" style="verticalLabelPosition=bottom;html=1;verticalAlign=top;align=center;strokeColor=none;fillColor=#00BEF2;shape=mxgraph.azure.git_repository;rotation=-90;" vertex="1" parent="63">
                    <mxGeometry x="190" y="172" width="30" height="30" as="geometry"/>
                </mxCell>
                <mxCell id="88" value="release/0.0.1" style="text;html=1;resizable=0;autosize=1;align=center;verticalAlign=middle;points=[];fillColor=none;strokeColor=none;rounded=0;fontSize=16;" vertex="1" parent="63">
                    <mxGeometry x="245" y="158" width="110" height="20" as="geometry"/>
                </mxCell>
                <mxCell id="89" value="" style="sketch=0;pointerEvents=1;shadow=0;dashed=0;html=1;strokeColor=#B20000;fillColor=#FF3333;labelPosition=center;verticalLabelPosition=bottom;verticalAlign=top;align=center;outlineConnect=0;shape=mxgraph.veeam2.locked;fontSize=16;fontColor=#ffffff;" vertex="1" parent="63">
                    <mxGeometry x="222" y="158" width="21" height="21" as="geometry"/>
                </mxCell>
                <mxCell id="90" value="" style="endArrow=classic;html=1;fontSize=16;elbow=vertical;exitX=0.5;exitY=1;exitDx=0;exitDy=0;exitPerimeter=0;" edge="1" parent="63" source="87">
                    <mxGeometry width="50" height="50" relative="1" as="geometry">
                        <mxPoint x="230" y="186" as="sourcePoint"/>
                        <mxPoint x="880" y="187" as="targetPoint"/>
                    </mxGeometry>
                </mxCell>
                <mxCell id="114" value="feature-1-start" style="locked=1;" parent="0"/>
                <mxCell id="121" value="" style="verticalLabelPosition=bottom;html=1;verticalAlign=top;align=center;strokeColor=none;fillColor=#00BEF2;shape=mxgraph.azure.git_repository;rotation=-90;" vertex="1" parent="114">
                    <mxGeometry x="300" y="285" width="30" height="30" as="geometry"/>
                </mxCell>
                <mxCell id="122" value="" style="endArrow=classic;html=1;fontSize=16;edgeStyle=orthogonalEdgeStyle;elbow=vertical;entryX=0.5;entryY=0;entryDx=0;entryDy=0;entryPerimeter=0;exitX=0.5;exitY=1;exitDx=0;exitDy=0;exitPerimeter=0;" edge="1" parent="114" target="121">
                    <mxGeometry width="50" height="50" relative="1" as="geometry">
                        <mxPoint x="220" y="230" as="sourcePoint"/>
                        <mxPoint x="270" y="300" as="targetPoint"/>
                    </mxGeometry>
                </mxCell>
                <mxCell id="123" value="" style="endArrow=classic;html=1;fontSize=16;elbow=vertical;exitX=0.5;exitY=1;exitDx=0;exitDy=0;exitPerimeter=0;edgeStyle=orthogonalEdgeStyle;" edge="1" parent="114" source="121">
                    <mxGeometry width="50" height="50" relative="1" as="geometry">
                        <mxPoint x="400" y="330" as="sourcePoint"/>
                        <mxPoint x="540" y="300" as="targetPoint"/>
                    </mxGeometry>
                </mxCell>
                <mxCell id="125" value="develop-feature-1" style="text;html=1;resizable=0;autosize=1;align=center;verticalAlign=middle;points=[];fillColor=none;strokeColor=none;rounded=0;fontSize=16;" vertex="1" parent="114">
                    <mxGeometry x="359" y="268" width="140" height="20" as="geometry"/>
                </mxCell>
                <mxCell id="126" value="" style="sketch=0;pointerEvents=1;shadow=0;dashed=0;html=1;strokeColor=none;fillColor=#FF8000;labelPosition=center;verticalLabelPosition=bottom;verticalAlign=top;align=center;outlineConnect=0;shape=mxgraph.veeam2.unlocked;fontSize=16;" vertex="1" parent="114">
                    <mxGeometry x="331" y="267" width="21" height="21" as="geometry"/>
                </mxCell>
                <mxCell id="156" value="feature-2-started" style="locked=1;" parent="0"/>
                <mxCell id="172" value="" style="verticalLabelPosition=bottom;html=1;verticalAlign=top;align=center;strokeColor=none;fillColor=#00BEF2;shape=mxgraph.azure.git_repository;rotation=-90;" vertex="1" parent="156">
                    <mxGeometry x="392" y="372" width="30" height="30" as="geometry"/>
                </mxCell>
                <mxCell id="173" value="" style="endArrow=classic;html=1;fontSize=16;edgeStyle=orthogonalEdgeStyle;elbow=vertical;entryX=0.5;entryY=0;entryDx=0;entryDy=0;entryPerimeter=0;exitX=0.5;exitY=1;exitDx=0;exitDy=0;exitPerimeter=0;" edge="1" parent="156" target="172">
                    <mxGeometry width="50" height="50" relative="1" as="geometry">
                        <mxPoint x="220" y="230" as="sourcePoint"/>
                        <mxPoint x="336" y="387" as="targetPoint"/>
                        <Array as="points">
                            <mxPoint x="350" y="230"/>
                            <mxPoint x="350" y="387"/>
                        </Array>
                    </mxGeometry>
                </mxCell>
                <mxCell id="174" value="" style="endArrow=classic;html=1;fontSize=16;elbow=vertical;exitX=0.5;exitY=1;exitDx=0;exitDy=0;exitPerimeter=0;edgeStyle=orthogonalEdgeStyle;" edge="1" parent="156" source="172">
                    <mxGeometry width="50" height="50" relative="1" as="geometry">
                        <mxPoint x="466" y="417" as="sourcePoint"/>
                        <mxPoint x="620" y="387" as="targetPoint"/>
                    </mxGeometry>
                </mxCell>
                <mxCell id="175" value="develop-feature-2" style="text;html=1;resizable=0;autosize=1;align=center;verticalAlign=middle;points=[];fillColor=none;strokeColor=none;rounded=0;fontSize=16;" vertex="1" parent="156">
                    <mxGeometry x="417" y="355" width="140" height="20" as="geometry"/>
                </mxCell>
                <mxCell id="176" value="" style="sketch=0;pointerEvents=1;shadow=0;dashed=0;html=1;strokeColor=none;fillColor=#FF8000;labelPosition=center;verticalLabelPosition=bottom;verticalAlign=top;align=center;outlineConnect=0;shape=mxgraph.veeam2.unlocked;fontSize=16;" vertex="1" parent="156">
                    <mxGeometry x="401.5" y="354" width="21" height="21" as="geometry"/>
                </mxCell>
                <mxCell id="284" value="feature-1-complete" style="locked=1;" parent="0" visible="0"/>
                <mxCell id="285" value="" style="endArrow=classic;html=1;fontSize=16;elbow=vertical;exitX=0.5;exitY=1;exitDx=0;exitDy=0;exitPerimeter=0;edgeStyle=orthogonalEdgeStyle;" edge="1" parent="284">
                    <mxGeometry width="50" height="50" relative="1" as="geometry">
                        <mxPoint x="332" y="300" as="sourcePoint"/>
                        <mxPoint x="542" y="232" as="targetPoint"/>
                    </mxGeometry>
                </mxCell>
                <mxCell id="286" value="merge" style="text;html=1;resizable=0;autosize=1;align=center;verticalAlign=middle;points=[];fillColor=none;strokeColor=none;rounded=0;fontSize=16;" vertex="1" parent="284">
                    <mxGeometry x="487" y="252" width="60" height="20" as="geometry"/>
                </mxCell>
                <mxCell id="287" value="" style="endArrow=none;html=1;fontSize=16;elbow=vertical;dashed=1;fillColor=#fa6800;strokeColor=#C73500;strokeWidth=2;" edge="1" parent="284">
                    <mxGeometry width="50" height="50" relative="1" as="geometry">
                        <mxPoint x="522" y="480" as="sourcePoint"/>
                        <mxPoint x="522" y="80" as="targetPoint"/>
                    </mxGeometry>
                </mxCell>
                <mxCell id="288" value="" style="html=1;verticalLabelPosition=bottom;align=center;labelBackgroundColor=#ffffff;verticalAlign=top;strokeWidth=2;strokeColor=#6D1F00;shadow=0;dashed=0;shape=mxgraph.ios7.icons.delete;fontSize=16;fillColor=#a0522d;fontColor=#ffffff;" vertex="1" parent="284">
                    <mxGeometry x="552" y="263" width="23" height="22" as="geometry"/>
                </mxCell>
                <mxCell id="289" value="Feature - 1&lt;br&gt;tested" style="text;html=1;resizable=0;autosize=1;align=center;verticalAlign=middle;points=[];fillColor=none;strokeColor=none;rounded=0;fontSize=16;" vertex="1" parent="284">
                    <mxGeometry x="480" y="30" width="90" height="40" as="geometry"/>
                </mxCell>
                <mxCell id="290" value="feature-2-tested" style="locked=1;" parent="0" visible="0"/>
                <mxCell id="291" value="" style="endArrow=classic;html=1;fontSize=16;elbow=vertical;exitX=0.5;exitY=1;exitDx=0;exitDy=0;exitPerimeter=0;edgeStyle=orthogonalEdgeStyle;" edge="1" parent="290">
                    <mxGeometry width="50" height="50" relative="1" as="geometry">
                        <mxPoint x="424" y="387" as="sourcePoint"/>
                        <mxPoint x="622" y="230" as="targetPoint"/>
                    </mxGeometry>
                </mxCell>
                <mxCell id="292" value="merge" style="text;html=1;resizable=0;autosize=1;align=center;verticalAlign=middle;points=[];fillColor=none;strokeColor=none;rounded=0;fontSize=16;" vertex="1" parent="290">
                    <mxGeometry x="599" y="244" width="60" height="20" as="geometry"/>
                </mxCell>
                <mxCell id="293" value="Feature - 2&lt;br&gt;tested" style="text;html=1;resizable=0;autosize=1;align=center;verticalAlign=middle;points=[];fillColor=none;strokeColor=none;rounded=0;fontSize=16;" vertex="1" parent="290">
                    <mxGeometry x="569" y="30" width="90" height="40" as="geometry"/>
                </mxCell>
                <mxCell id="294" value="" style="endArrow=none;html=1;fontSize=16;elbow=vertical;dashed=1;fillColor=#fa6800;strokeColor=#C73500;strokeWidth=2;" edge="1" parent="290">
                    <mxGeometry width="50" height="50" relative="1" as="geometry">
                        <mxPoint x="610" y="477.5" as="sourcePoint"/>
                        <mxPoint x="610" y="77.5" as="targetPoint"/>
                    </mxGeometry>
                </mxCell>
                <mxCell id="295" value="" style="html=1;verticalLabelPosition=bottom;align=center;labelBackgroundColor=#ffffff;verticalAlign=top;strokeWidth=2;strokeColor=#6D1F00;shadow=0;dashed=0;shape=mxgraph.ios7.icons.delete;fontSize=16;fillColor=#a0522d;fontColor=#ffffff;" vertex="1" parent="290">
                    <mxGeometry x="629" y="268" width="23" height="22" as="geometry"/>
                </mxCell>
                <mxCell id="296" value="Itr-1-complete" style="locked=1;" parent="0"/>
                <mxCell id="297" value="" style="endArrow=classic;html=1;fontSize=16;elbow=vertical;exitX=0.5;exitY=1;exitDx=0;exitDy=0;exitPerimeter=0;edgeStyle=orthogonalEdgeStyle;" edge="1" parent="296">
                    <mxGeometry width="50" height="50" relative="1" as="geometry">
                        <mxPoint x="222" y="230" as="sourcePoint"/>
                        <mxPoint x="722" y="190" as="targetPoint"/>
                        <Array as="points">
                            <mxPoint x="722" y="230"/>
                            <mxPoint x="722" y="190"/>
                        </Array>
                    </mxGeometry>
                </mxCell>
                <mxCell id="298" value="merge" style="text;html=1;resizable=0;autosize=1;align=center;verticalAlign=middle;points=[];fillColor=none;strokeColor=none;rounded=0;fontSize=16;" vertex="1" parent="296">
                    <mxGeometry x="722" y="203" width="60" height="20" as="geometry"/>
                </mxCell>
                <mxCell id="299" value="" style="endArrow=none;html=1;fontSize=16;elbow=vertical;dashed=1;fillColor=#fa6800;strokeColor=#C73500;strokeWidth=2;" edge="1" parent="296">
                    <mxGeometry width="50" height="50" relative="1" as="geometry">
                        <mxPoint x="712" y="477.5" as="sourcePoint"/>
                        <mxPoint x="712" y="77.5" as="targetPoint"/>
                    </mxGeometry>
                </mxCell>
                <mxCell id="300" value="Iteration-1 &lt;br&gt;completed" style="text;html=1;resizable=0;autosize=1;align=center;verticalAlign=middle;points=[];fillColor=none;strokeColor=none;rounded=0;fontSize=16;" vertex="1" parent="296">
                    <mxGeometry x="672" y="30" width="90" height="40" as="geometry"/>
                </mxCell>
                <mxCell id="303" value="Untitled Layer" parent="0" visible="0"/>
                <mxCell id="304" value="" style="endArrow=classic;html=1;fontSize=16;elbow=vertical;exitX=0.5;exitY=1;exitDx=0;exitDy=0;exitPerimeter=0;edgeStyle=orthogonalEdgeStyle;" edge="1" parent="303">
                    <mxGeometry width="50" height="50" relative="1" as="geometry">
                        <mxPoint x="222" y="187" as="sourcePoint"/>
                        <mxPoint x="882" y="150" as="targetPoint"/>
                    </mxGeometry>
                </mxCell>
                <mxCell id="305" value="QA-Tested" style="text;html=1;resizable=0;autosize=1;align=center;verticalAlign=middle;points=[];fillColor=none;strokeColor=none;rounded=0;fontSize=16;" vertex="1" parent="303">
                    <mxGeometry x="820" y="50" width="90" height="20" as="geometry"/>
                </mxCell>
                <mxCell id="306" value="merge" style="text;html=1;resizable=0;autosize=1;align=center;verticalAlign=middle;points=[];fillColor=none;strokeColor=none;rounded=0;fontSize=16;" vertex="1" parent="303">
                    <mxGeometry x="892" y="159" width="60" height="20" as="geometry"/>
                </mxCell>
                <mxCell id="307" value="" style="endArrow=none;html=1;fontSize=16;elbow=vertical;dashed=1;fillColor=#fa6800;strokeColor=#C73500;strokeWidth=2;" edge="1" parent="303">
                    <mxGeometry width="50" height="50" relative="1" as="geometry">
                        <mxPoint x="870" y="478" as="sourcePoint"/>
                        <mxPoint x="870" y="78" as="targetPoint"/>
                    </mxGeometry>
                </mxCell>
                <mxCell id="309" value="" style="sketch=0;pointerEvents=1;shadow=0;dashed=0;html=1;strokeColor=none;fillColor=#DF8C42;labelPosition=center;verticalLabelPosition=bottom;verticalAlign=top;align=center;outlineConnect=0;shape=mxgraph.veeam2.locked;fontSize=16;" vertex="1" parent="303">
                    <mxGeometry x="370" y="10" width="21" height="21" as="geometry"/>
                </mxCell>
                <mxCell id="242" value="Untitled Layer" style="" parent="0"/>
                <mxCell id="243" value="" style="verticalLabelPosition=bottom;html=1;verticalAlign=top;align=center;strokeColor=none;fillColor=#00BEF2;shape=mxgraph.azure.git_repository;rotation=-90;" vertex="1" parent="242">
                    <mxGeometry x="80" y="130" width="30" height="30" as="geometry"/>
                </mxCell>
                <mxCell id="244" value="" style="verticalLabelPosition=bottom;html=1;verticalAlign=top;align=center;strokeColor=none;fillColor=#00BEF2;shape=mxgraph.azure.git_repository;rotation=-90;" vertex="1" parent="242">
                    <mxGeometry x="190" y="215" width="30" height="30" as="geometry"/>
                </mxCell>
                <mxCell id="245" value="" style="endArrow=classic;html=1;exitX=0.5;exitY=1;exitDx=0;exitDy=0;exitPerimeter=0;" edge="1" parent="242" source="243">
                    <mxGeometry width="50" height="50" relative="1" as="geometry">
                        <mxPoint x="170" y="170" as="sourcePoint"/>
                        <mxPoint x="940" y="145" as="targetPoint"/>
                    </mxGeometry>
                </mxCell>
                <mxCell id="246" value="master" style="text;html=1;resizable=0;autosize=1;align=center;verticalAlign=middle;points=[];fillColor=none;strokeColor=none;rounded=0;fontSize=16;" vertex="1" parent="242">
                    <mxGeometry x="145" y="120" width="60" height="20" as="geometry"/>
                </mxCell>
                <mxCell id="247" value="" style="endArrow=classic;html=1;fontSize=16;edgeStyle=orthogonalEdgeStyle;elbow=vertical;exitX=0.5;exitY=1;exitDx=0;exitDy=0;exitPerimeter=0;entryX=0.5;entryY=0;entryDx=0;entryDy=0;entryPerimeter=0;" edge="1" parent="242" source="243" target="244">
                    <mxGeometry width="50" height="50" relative="1" as="geometry">
                        <mxPoint x="110" y="150" as="sourcePoint"/>
                        <mxPoint x="160" y="200" as="targetPoint"/>
                    </mxGeometry>
                </mxCell>
                <mxCell id="248" value="" style="endArrow=classic;html=1;fontSize=16;elbow=vertical;exitX=0.5;exitY=1;exitDx=0;exitDy=0;exitPerimeter=0;edgeStyle=orthogonalEdgeStyle;" edge="1" parent="242" source="244">
                    <mxGeometry width="50" height="50" relative="1" as="geometry">
                        <mxPoint x="290" y="262" as="sourcePoint"/>
                        <mxPoint x="720" y="190" as="targetPoint"/>
                        <Array as="points">
                            <mxPoint x="720" y="230"/>
                            <mxPoint x="720" y="190"/>
                        </Array>
                    </mxGeometry>
                </mxCell>
                <mxCell id="249" value="" style="verticalLabelPosition=bottom;html=1;verticalAlign=top;align=center;strokeColor=none;fillColor=#00BEF2;shape=mxgraph.azure.git_repository;rotation=-90;" vertex="1" parent="242">
                    <mxGeometry x="300" y="285" width="30" height="30" as="geometry"/>
                </mxCell>
                <mxCell id="250" value="" style="endArrow=classic;html=1;fontSize=16;edgeStyle=orthogonalEdgeStyle;elbow=vertical;entryX=0.5;entryY=0;entryDx=0;entryDy=0;entryPerimeter=0;exitX=0.5;exitY=1;exitDx=0;exitDy=0;exitPerimeter=0;" edge="1" parent="242" source="244" target="249">
                    <mxGeometry width="50" height="50" relative="1" as="geometry">
                        <mxPoint x="230" y="232" as="sourcePoint"/>
                        <mxPoint x="270" y="300" as="targetPoint"/>
                    </mxGeometry>
                </mxCell>
                <mxCell id="251" value="" style="endArrow=classic;html=1;fontSize=16;elbow=vertical;exitX=0.5;exitY=1;exitDx=0;exitDy=0;exitPerimeter=0;edgeStyle=orthogonalEdgeStyle;" edge="1" parent="242" source="249">
                    <mxGeometry width="50" height="50" relative="1" as="geometry">
                        <mxPoint x="400" y="330" as="sourcePoint"/>
                        <mxPoint x="540" y="232" as="targetPoint"/>
                    </mxGeometry>
                </mxCell>
                <mxCell id="252" value="" style="endArrow=classic;html=1;fontSize=16;elbow=vertical;entryX=0.5;entryY=0;entryDx=0;entryDy=0;entryPerimeter=0;" edge="1" parent="242" target="243">
                    <mxGeometry width="50" height="50" relative="1" as="geometry">
                        <mxPoint x="20" y="145" as="sourcePoint"/>
                        <mxPoint x="70" y="120" as="targetPoint"/>
                    </mxGeometry>
                </mxCell>
                <mxCell id="253" value="develop-feature-1" style="text;html=1;resizable=0;autosize=1;align=center;verticalAlign=middle;points=[];fillColor=none;strokeColor=none;rounded=0;fontSize=16;" vertex="1" parent="242">
                    <mxGeometry x="342" y="268" width="140" height="20" as="geometry"/>
                </mxCell>
                <mxCell id="254" value="" style="sketch=0;pointerEvents=1;shadow=0;dashed=0;html=1;strokeColor=none;fillColor=#FF8000;labelPosition=center;verticalLabelPosition=bottom;verticalAlign=top;align=center;outlineConnect=0;shape=mxgraph.veeam2.unlocked;fontSize=16;" vertex="1" parent="242">
                    <mxGeometry x="331" y="267" width="21" height="21" as="geometry"/>
                </mxCell>
                <mxCell id="255" value="" style="sketch=0;pointerEvents=1;shadow=0;dashed=0;html=1;strokeColor=none;fillColor=#FF3333;labelPosition=center;verticalLabelPosition=bottom;verticalAlign=top;align=center;outlineConnect=0;shape=mxgraph.veeam2.locked;fontSize=16;" vertex="1" parent="242">
                    <mxGeometry x="124" y="119.5" width="21" height="21" as="geometry"/>
                </mxCell>
                <mxCell id="256" value="develop" style="text;html=1;resizable=0;autosize=1;align=center;verticalAlign=middle;points=[];fillColor=none;strokeColor=none;rounded=0;fontSize=16;" vertex="1" parent="242">
                    <mxGeometry x="280" y="202" width="70" height="20" as="geometry"/>
                </mxCell>
                <mxCell id="257" value="" style="sketch=0;pointerEvents=1;shadow=0;dashed=0;html=1;strokeColor=#B20000;fillColor=#FF3333;labelPosition=center;verticalLabelPosition=bottom;verticalAlign=top;align=center;outlineConnect=0;shape=mxgraph.veeam2.locked;fontSize=16;fontColor=#ffffff;" vertex="1" parent="242">
                    <mxGeometry x="259" y="202" width="21" height="21" as="geometry"/>
                </mxCell>
                <mxCell id="258" value="" style="verticalLabelPosition=bottom;html=1;verticalAlign=top;align=center;strokeColor=none;fillColor=#00BEF2;shape=mxgraph.azure.git_repository;rotation=-90;" vertex="1" parent="242">
                    <mxGeometry x="392" y="372" width="30" height="30" as="geometry"/>
                </mxCell>
                <mxCell id="259" value="" style="endArrow=classic;html=1;fontSize=16;edgeStyle=orthogonalEdgeStyle;elbow=vertical;entryX=0.5;entryY=0;entryDx=0;entryDy=0;entryPerimeter=0;exitX=0.5;exitY=1;exitDx=0;exitDy=0;exitPerimeter=0;" edge="1" parent="242" source="244" target="258">
                    <mxGeometry width="50" height="50" relative="1" as="geometry">
                        <mxPoint x="220" y="232" as="sourcePoint"/>
                        <mxPoint x="336" y="387" as="targetPoint"/>
                        <Array as="points">
                            <mxPoint x="350" y="230"/>
                            <mxPoint x="350" y="387"/>
                        </Array>
                    </mxGeometry>
                </mxCell>
                <mxCell id="260" value="" style="endArrow=classic;html=1;fontSize=16;elbow=vertical;exitX=0.5;exitY=1;exitDx=0;exitDy=0;exitPerimeter=0;edgeStyle=orthogonalEdgeStyle;" edge="1" parent="242" source="258">
                    <mxGeometry width="50" height="50" relative="1" as="geometry">
                        <mxPoint x="466" y="417" as="sourcePoint"/>
                        <mxPoint x="620" y="230" as="targetPoint"/>
                    </mxGeometry>
                </mxCell>
                <mxCell id="261" value="develop-feature-2" style="text;html=1;resizable=0;autosize=1;align=center;verticalAlign=middle;points=[];fillColor=none;strokeColor=none;rounded=0;fontSize=16;" vertex="1" parent="242">
                    <mxGeometry x="417" y="355" width="140" height="20" as="geometry"/>
                </mxCell>
                <mxCell id="262" value="" style="sketch=0;pointerEvents=1;shadow=0;dashed=0;html=1;strokeColor=none;fillColor=#FF8000;labelPosition=center;verticalLabelPosition=bottom;verticalAlign=top;align=center;outlineConnect=0;shape=mxgraph.veeam2.unlocked;fontSize=16;" vertex="1" parent="242">
                    <mxGeometry x="401.5" y="354" width="21" height="21" as="geometry"/>
                </mxCell>
                <mxCell id="263" value="merge" style="text;html=1;resizable=0;autosize=1;align=center;verticalAlign=middle;points=[];fillColor=none;strokeColor=none;rounded=0;fontSize=16;" vertex="1" parent="242">
                    <mxGeometry x="485" y="252" width="60" height="20" as="geometry"/>
                </mxCell>
                <mxCell id="264" value="merge" style="text;html=1;resizable=0;autosize=1;align=center;verticalAlign=middle;points=[];fillColor=none;strokeColor=none;rounded=0;fontSize=16;" vertex="1" parent="242">
                    <mxGeometry x="597" y="244" width="60" height="20" as="geometry"/>
                </mxCell>
                <mxCell id="265" value="" style="endArrow=classic;html=1;fontSize=16;edgeStyle=orthogonalEdgeStyle;elbow=vertical;exitX=0.5;exitY=1;exitDx=0;exitDy=0;exitPerimeter=0;entryX=0.5;entryY=0;entryDx=0;entryDy=0;entryPerimeter=0;" edge="1" parent="242" source="243" target="266">
                    <mxGeometry width="50" height="50" relative="1" as="geometry">
                        <mxPoint x="120" y="155" as="sourcePoint"/>
                        <mxPoint x="230" y="220" as="targetPoint"/>
                    </mxGeometry>
                </mxCell>
                <mxCell id="266" value="" style="verticalLabelPosition=bottom;html=1;verticalAlign=top;align=center;strokeColor=none;fillColor=#00BEF2;shape=mxgraph.azure.git_repository;rotation=-90;" vertex="1" parent="242">
                    <mxGeometry x="190" y="172" width="30" height="30" as="geometry"/>
                </mxCell>
                <mxCell id="267" value="release/0.0.1" style="text;html=1;resizable=0;autosize=1;align=center;verticalAlign=middle;points=[];fillColor=none;strokeColor=none;rounded=0;fontSize=16;" vertex="1" parent="242">
                    <mxGeometry x="245" y="158" width="110" height="20" as="geometry"/>
                </mxCell>
                <mxCell id="268" value="" style="sketch=0;pointerEvents=1;shadow=0;dashed=0;html=1;strokeColor=#B20000;fillColor=#FF3333;labelPosition=center;verticalLabelPosition=bottom;verticalAlign=top;align=center;outlineConnect=0;shape=mxgraph.veeam2.locked;fontSize=16;fontColor=#ffffff;" vertex="1" parent="242">
                    <mxGeometry x="222" y="158" width="21" height="21" as="geometry"/>
                </mxCell>
                <mxCell id="269" value="" style="endArrow=classic;html=1;fontSize=16;elbow=vertical;exitX=0.5;exitY=1;exitDx=0;exitDy=0;exitPerimeter=0;edgeStyle=orthogonalEdgeStyle;" edge="1" parent="242" source="266">
                    <mxGeometry width="50" height="50" relative="1" as="geometry">
                        <mxPoint x="230" y="186" as="sourcePoint"/>
                        <mxPoint x="880" y="150" as="targetPoint"/>
                    </mxGeometry>
                </mxCell>
                <mxCell id="270" value="merge" style="text;html=1;resizable=0;autosize=1;align=center;verticalAlign=middle;points=[];fillColor=none;strokeColor=none;rounded=0;fontSize=16;" vertex="1" parent="242">
                    <mxGeometry x="720" y="203" width="60" height="20" as="geometry"/>
                </mxCell>
                <mxCell id="271" value="" style="endArrow=none;html=1;fontSize=16;elbow=vertical;dashed=1;fillColor=#fa6800;strokeColor=#C73500;strokeWidth=2;" edge="1" parent="242">
                    <mxGeometry width="50" height="50" relative="1" as="geometry">
                        <mxPoint x="520" y="480" as="sourcePoint"/>
                        <mxPoint x="520" y="80" as="targetPoint"/>
                    </mxGeometry>
                </mxCell>
                <mxCell id="272" value="" style="endArrow=none;dashed=1;html=1;dashPattern=1 3;strokeWidth=2;fontSize=16;elbow=vertical;" edge="1" parent="242">
                    <mxGeometry width="50" height="50" relative="1" as="geometry">
                        <mxPoint x="20" y="70" as="sourcePoint"/>
                        <mxPoint x="900" y="80" as="targetPoint"/>
                    </mxGeometry>
                </mxCell>
                <mxCell id="273" value="Events" style="text;html=1;resizable=0;autosize=1;align=center;verticalAlign=middle;points=[];fillColor=none;strokeColor=none;rounded=0;fontSize=16;" vertex="1" parent="242">
                    <mxGeometry x="20" y="40" width="60" height="20" as="geometry"/>
                </mxCell>
                <mxCell id="274" value="Feature - 1&lt;br&gt;tested" style="text;html=1;resizable=0;autosize=1;align=center;verticalAlign=middle;points=[];fillColor=none;strokeColor=none;rounded=0;fontSize=16;" vertex="1" parent="242">
                    <mxGeometry x="470" y="30" width="90" height="40" as="geometry"/>
                </mxCell>
                <mxCell id="275" value="Feature - 2&lt;br&gt;tested" style="text;html=1;resizable=0;autosize=1;align=center;verticalAlign=middle;points=[];fillColor=none;strokeColor=none;rounded=0;fontSize=16;" vertex="1" parent="242">
                    <mxGeometry x="567" y="30" width="90" height="40" as="geometry"/>
                </mxCell>
                <mxCell id="276" value="" style="endArrow=none;html=1;fontSize=16;elbow=vertical;dashed=1;fillColor=#fa6800;strokeColor=#C73500;strokeWidth=2;" edge="1" parent="242">
                    <mxGeometry width="50" height="50" relative="1" as="geometry">
                        <mxPoint x="608" y="477.5" as="sourcePoint"/>
                        <mxPoint x="608" y="77.5" as="targetPoint"/>
                    </mxGeometry>
                </mxCell>
                <mxCell id="277" value="" style="endArrow=none;html=1;fontSize=16;elbow=vertical;dashed=1;fillColor=#fa6800;strokeColor=#C73500;strokeWidth=2;" edge="1" parent="242">
                    <mxGeometry width="50" height="50" relative="1" as="geometry">
                        <mxPoint x="710" y="477.5" as="sourcePoint"/>
                        <mxPoint x="710" y="77.5" as="targetPoint"/>
                    </mxGeometry>
                </mxCell>
                <mxCell id="278" value="Iteration-1 &lt;br&gt;completed" style="text;html=1;resizable=0;autosize=1;align=center;verticalAlign=middle;points=[];fillColor=none;strokeColor=none;rounded=0;fontSize=16;" vertex="1" parent="242">
                    <mxGeometry x="670" y="30" width="90" height="40" as="geometry"/>
                </mxCell>
                <mxCell id="279" value="QA-Tested" style="text;html=1;resizable=0;autosize=1;align=center;verticalAlign=middle;points=[];fillColor=none;strokeColor=none;rounded=0;fontSize=16;" vertex="1" parent="242">
                    <mxGeometry x="818" y="50" width="90" height="20" as="geometry"/>
                </mxCell>
                <mxCell id="280" value="" style="endArrow=none;html=1;fontSize=16;elbow=vertical;dashed=1;fillColor=#fa6800;strokeColor=#C73500;strokeWidth=2;" edge="1" parent="242">
                    <mxGeometry width="50" height="50" relative="1" as="geometry">
                        <mxPoint x="860" y="480" as="sourcePoint"/>
                        <mxPoint x="860" y="80" as="targetPoint"/>
                    </mxGeometry>
                </mxCell>
                <mxCell id="281" value="merge" style="text;html=1;resizable=0;autosize=1;align=center;verticalAlign=middle;points=[];fillColor=none;strokeColor=none;rounded=0;fontSize=16;" vertex="1" parent="242">
                    <mxGeometry x="890" y="159" width="60" height="20" as="geometry"/>
                </mxCell>
                <mxCell id="282" value="" style="html=1;verticalLabelPosition=bottom;align=center;labelBackgroundColor=#ffffff;verticalAlign=top;strokeWidth=2;strokeColor=#6D1F00;shadow=0;dashed=0;shape=mxgraph.ios7.icons.delete;fontSize=16;fillColor=#a0522d;fontColor=#ffffff;" vertex="1" parent="242">
                    <mxGeometry x="627" y="268" width="23" height="22" as="geometry"/>
                </mxCell>
                <mxCell id="283" value="" style="html=1;verticalLabelPosition=bottom;align=center;labelBackgroundColor=#ffffff;verticalAlign=top;strokeWidth=2;strokeColor=#6D1F00;shadow=0;dashed=0;shape=mxgraph.ios7.icons.delete;fontSize=16;fillColor=#a0522d;fontColor=#ffffff;" vertex="1" parent="242">
                    <mxGeometry x="550" y="263" width="23" height="22" as="geometry"/>
                </mxCell>
            </root>
        </mxGraphModel>
    </diagram>
</mxfile>